<svg width="64" height="64" viewBox="0 0 64 64" xmlns="http://www.w3.org/2000/svg">
  <g fill="none" stroke="#1F5F8B" stroke-width="3" stroke-linecap="round" stroke-linejoin="round">

    <!-- bulb -->
    <path d="M32 6C21 6 14 14 14 24c0 6 3 10 7 14 2 2 3 4 3 6h16c0-2 1-4 3-6 4-4 7-8 7-14C50 14 43 6 32 6z"/>

    <!-- filament -->
    <path d="M26 26c2 2 4 3 6 3s4-1 6-3"/>

    <!-- base -->
    <line x1="24" y1="44" x2="40" y2="44"/>
    <line x1="26" y1="49" x2="38" y2="49"/>
    <line x1="28" y1="54" x2="36" y2="54"/>

  </g>
</svg>